<svg width="13" height="14" viewBox="0 0 13 14" fill="none" xmlns="http://www.w3.org/2000/svg">
<path d="M12.5 3.77456V11.5055C12.5 12.3304 11.8488 13.0002 11.0427 13.0002H1.9538C1.15122 13.0002 0.5 12.3304 0.5 11.5055V3.77456C0.5 2.94612 1.15122 2.27985 1.9538 2.27985H3.03447V2.85446C3.03447 3.24224 3.34072 3.55599 3.71737 3.55599C4.09402 3.55599 4.40026 3.24224 4.40026 2.85446V2.27985H8.59622V2.85446C8.59622 3.24224 8.90599 3.55599 9.27912 3.55599C9.65225 3.55599 9.96201 3.24224 9.96201 2.85446V2.27985H11.0356C11.8417 2.27985 12.493 2.94612 12.493 3.77456H12.5Z" fill="#858585" stroke="#858585" stroke-miterlimit="10"/>
<path d="M4.40028 1.70153V2.85076C4.40028 3.23854 4.09051 3.55229 3.71738 3.55229C3.34425 3.55229 3.03448 3.23854 3.03448 2.85076V1.70153C3.03448 1.31375 3.34073 1 3.71738 1C4.09403 1 4.40028 1.31375 4.40028 1.70153Z" fill="#858585" stroke="#858585" stroke-miterlimit="10" stroke-linecap="round"/>
<path d="M9.96547 1.70153V2.85076C9.96547 3.23854 9.65922 3.55229 9.28257 3.55229C8.90592 3.55229 8.59967 3.23854 8.59967 2.85076V1.70153C8.59967 1.31375 8.90944 1 9.28257 1C9.6557 1 9.96547 1.31375 9.96547 1.70153Z" fill="#858585" stroke="#858585" stroke-miterlimit="10" stroke-linecap="round"/>
<rect x="1.5" y="6.90002" width="2" height="2" rx="0.2" fill="#FFFAFA"/>
<rect x="1.5" y="9.90002" width="2" height="2" rx="0.2" fill="#FFFAFA"/>
<rect x="5.5" y="6.90002" width="2" height="2" rx="0.2" fill="#FFFAFA"/>
<rect x="5.5" y="9.90002" width="2" height="2" rx="0.2" fill="#FFFAFA"/>
<rect x="9.5" y="6.90002" width="2" height="2" rx="0.2" fill="#FFFAFA"/>
<rect x="9.5" y="9.90002" width="2" height="2" rx="0.2" fill="#FFFAFA"/>
<path d="M0 3.5C0 2.39543 0.895431 1.5 2 1.5H11C12.1046 1.5 13 2.39543 13 3.5V3.6V5.7H0V3.5Z" fill="#6A6B6B"/>
</svg>
