<svg width="14" height="17" viewBox="0 0 14 17" fill="none" xmlns="http://www.w3.org/2000/svg">
<path d="M12.249 9.78148C12.7395 8.97468 13 8.04444 13 7.09656C13 3.51225 9.95251 0.650984 6.34934 1.03454C3.58402 1.32993 1.3353 3.61806 1.03576 6.42643C1.0184 6.60719 1.00538 6.78354 1.00103 6.96429C0.979329 8.00916 1.30057 9.02758 1.83454 9.91815C2.41191 10.8704 3.07177 11.7654 3.80542 12.5943L6.71834 15.8744C6.87028 16.0419 7.13075 16.0419 7.27835 15.8744L10.2 12.5766C10.9293 11.7566 11.5804 10.8704 12.1535 9.93137L12.2446 9.77707L12.249 9.78148Z" fill="#858585" stroke="#858585" stroke-miterlimit="10"/>
<path d="M6.99979 9.0773C8.32528 9.0773 9.39979 8.04411 9.39979 6.76961C9.39979 5.4951 8.32528 4.46191 6.99979 4.46191C5.67431 4.46191 4.59979 5.4951 4.59979 6.76961C4.59979 8.04411 5.67431 9.0773 6.99979 9.0773Z" fill="#F4F4F4" stroke="#858585" stroke-miterlimit="10"/>
</svg>
