<svg width="49" height="49" viewBox="0 0 49 49" fill="none" xmlns="http://www.w3.org/2000/svg">
<path d="M24.5 0C10.976 0 0 10.976 0 24.5C0 38.024 10.976 49 24.5 49C38.024 49 49 38.024 49 24.5C49 10.976 38.024 0 24.5 0ZM24.5 44.1C13.671 44.1 4.9 35.329 4.9 24.5C4.9 19.9675 6.4435 15.8025 9.0405 12.495L36.505 39.9595C33.0829 42.6505 28.8534 44.1092 24.5 44.1ZM39.9595 36.505L12.495 9.0405C15.9171 6.34949 20.1466 4.89077 24.5 4.9C35.329 4.9 44.1 13.671 44.1 24.5C44.1 29.0325 42.5565 33.1975 39.9595 36.505Z" fill="black"/>
</svg>
